<svg id="Layer_1" data-name="Layer 1" xmlns="http://www.w3.org/2000/svg" viewBox="0 0 100 100"><defs><style>.cls-1,.cls-2{fill:#333;}.cls-2{opacity:0.35;isolation:isolate;}</style></defs><title>apache</title><path class="cls-1" d="M67.62.48C66,1.4,63.45,4,60.33,7.82h0L63.2,13.2a70.43,70.43,0,0,1,6.09-7.65l.24-.26-.24.26a63.79,63.79,0,0,0-5.73,7.76,107.48,107.48,0,0,0,11.11-1.37C75.77,5.82,73.6,3,73.6,3S70.85-1.43,67.62.48Z"/><path class="cls-1" d="M57.46,45.89l.56-.11-.84.15h0Z"/><path class="cls-2" d="M57.46,45.89l.56-.11-.84.15h0Z"/><polygon class="cls-1" points="59.2 41.06 59.91 40.93 59.16 41.05 59.15 41.06 59.2 41.06"/><polygon class="cls-2" points="59.2 41.06 59.91 40.93 59.16 41.05 59.15 41.06 59.2 41.06"/><path class="cls-1" d="M60.33,7.83l-.64.79c-.82,1-1.68,2.13-2.56,3.3s-2,2.73-3,4.21-1.92,2.8-2.89,4.28c-.82,1.26-1.65,2.56-2.47,3.89l-.09.15L52.4,31.8q1.15-2.36,2.37-4.65t2.64-4.76q1.34-2.33,2.8-4.66l.17-.27q1.4-2.21,2.82-4.25h0Z"/><polygon class="cls-1" points="60.33 7.83 63.19 13.21 63.2 13.2 60.34 7.82 60.33 7.83"/><path class="cls-1" d="M41.17,67.46l-3,.33v0h0l-.32.78q-.74,2-1.48,4.14v.06l-.21.6-1.29,3.75a7.33,7.33,0,0,1,2.81,3.31,6,6,0,0,0-1.94-4.12c5.4.24,10.06-1.12,12.46-5.07a10,10,0,0,0,.59-1.12c-1.09,1.39-2.45,2-5,1.83,3.76-1.68,5.64-3.3,7.31-6,.4-.63.78-1.33,1.17-2.1a11.77,11.77,0,0,1-11.1,3.61h0l-.15,0Z"/><path class="cls-1" d="M37.26,67v0q.74-2,1.52-4l.44-1.19q1-2.52,2-5.09t2-5q1-2.49,2.12-5l2.25-5.07q1.13-2.49,2.3-5L50.78,35q.74-1.52,1.49-3l.08-.16-3.72-7.35-.18.3q-1.3,2.11-2.58,4.34c-.85,1.48-1.7,3-2.52,4.56q-1,2-2,3.94l-.39.8c-.81,1.67-1.54,3.28-2.21,4.83q-1.13,2.63-2,5c-.38,1-.73,2.06-1,3s-.51,1.66-.74,2.48q-.83,2.92-1.43,5.82l2.63,5.3L37.27,67Z"/><path class="cls-1" d="M35.34,72.21q.75-2.08,1.56-4.25l.36-1-1.05-2.12-2.67-5.28-.06.26a57.38,57.38,0,0,0-1,7.05v.25c-1.17-1.87-4.29-3.69-4.28-3.68,2.24,3.24,3.93,6.46,4.19,9.62a9.44,9.44,0,0,1-4.73-.81,9.51,9.51,0,0,0,4,2.45c-1.81.11-3.71,1.36-5.61,2.8,2.78-1.14,5-1.59,6.65-1.22C30.18,83.53,27.62,91.52,25,100a2.23,2.23,0,0,0,1.52-1.47C27,97,30,86.92,34.81,73.67l.41-1.14Z"/><polygon class="cls-1" points="37.27 66.96 36.21 64.86 37.26 66.98 37.27 66.96"/><path class="cls-1" d="M62.91,31.28l2.76-.3-2.76.3h-.06l-.42.07h.07l-9.45,1-.12.07-.32.66-1,2q-.54,1.13-1.08,2.3L50,38.62q-.83,1.81-1.69,3.75-1.05,2.38-2.15,4.94T44,52.37q-1,2.48-2,5.13-.93,2.36-1.87,4.85l-.09.24q-.94,2.47-1.89,5.08v.09l3-.33c3.58-.5,8.27-3.15,11.32-6.42a28.51,28.51,0,0,0,3.91-5.44,47,47,0,0,0,2.52-5.24c.7-1.68,1.36-3.51,2-5.49a10.91,10.91,0,0,1-2.82,1l-.56.11-.57.09.22-.1-.27,0,.29-.05a13.09,13.09,0,0,0,6.76-6.72,11.94,11.94,0,0,1-4,1.77l-.71.13H59l.08,0h0l.06,0h0A13.65,13.65,0,0,0,62,39.43c.18-.14.36-.28.53-.43s.51-.46.74-.71.3-.32.44-.49a11.66,11.66,0,0,0,.94-1.29l.26-.44.32-.63c.47-.94.84-1.78,1.14-2.52.15-.37.28-.71.39-1l.13-.37c.12-.35.22-.67.29-.95a9.31,9.31,0,0,0,.22-1,3.65,3.65,0,0,1-.39.27A14.16,14.16,0,0,1,62.91,31.28Z"/><path class="cls-1" d="M59.08,41.07h0Z"/><path class="cls-1" d="M57.16,45.94h0l-.29.05Z"/><polygon class="cls-1" points="59.02 41.08 59.08 41.07 59.02 41.07 59.02 41.08"/><polygon class="cls-1" points="59.02 41.06 59.02 41.07 59.08 41.07 59.14 41.06 59.02 41.06"/><polygon class="cls-1" points="59.15 41.06 59.16 41.05 59.14 41.06 59.15 41.06"/><path class="cls-1" d="M38.17,67.79l3-.33H41l.15,0-3,.33Z"/><path class="cls-1" d="M60.83,17.73l-.16.26Q59.39,20.14,58,22.73,56.72,25,55.39,27.55,54.22,29.79,53,32.32l9.45-1,.15-.07h0a11.48,11.48,0,0,0,5-4c.32-.46.64-.93,1-1.43A50.67,50.67,0,0,0,71.42,21a50.26,50.26,0,0,0,2.1-4.62,24.27,24.27,0,0,0,.83-2.5c.17-.66.31-1.28.41-1.87a107.68,107.68,0,0,1-11.19,1.33C62.73,14.61,61.81,16.07,60.83,17.73Z"/></svg>