<svg id="Layer_1" data-name="Layer 1" xmlns="http://www.w3.org/2000/svg" viewBox="0 0 100 100"><defs><style>.cls-1{fill:#333;}</style></defs><title>chrome</title><path class="cls-1" d="M0,50A49.92,49.92,0,0,0,42.24,99.38L55.08,74.22C43.47,76.4,32.26,70,27,59.6h0L8.15,22.6A50,50,0,0,0,0,50Z"/><path class="cls-1" d="M75,6.7A50,50,0,0,0,11.11,18.57l15.4,23.67c3.85-11,15-17.64,26.71-17l41.39,2.18A50.06,50.06,0,0,0,75,6.7Z"/><path class="cls-1" d="M33.15,50A16.86,16.86,0,1,0,50,33.15,16.85,16.85,0,0,0,33.15,50Z"/><path class="cls-1" d="M75,93.29A49.94,49.94,0,0,0,96.63,32L68.47,33.47c7.64,8.93,7.76,21.81,1.33,31.69L47.2,99.92A49.79,49.79,0,0,0,75,93.29Z"/></svg>