<svg id="Layer_1" data-name="Layer 1" xmlns="http://www.w3.org/2000/svg" viewBox="0 0 100 100"><defs><style>.cls-1{fill:#333;}</style></defs><title>css</title><path class="cls-1" d="M27.93,89.41a9.1,9.1,0,0,1-4-1.67,5.78,5.78,0,0,1-1.93-3,15.81,15.81,0,0,1-.57-4.32q0-4.79.31-9.17T22,61.56q0-5.11-2-7.76T12.6,50.21v-.42Q18,48.86,20,46.2t2-7.76q0-4.9-.31-9.64t-.31-9.22a15.81,15.81,0,0,1,.52-4.32,5.78,5.78,0,0,1,1.93-3,9.1,9.1,0,0,1,4-1.67,33.56,33.56,0,0,1,6.51-.52h5.36V5.17H33.39a47.35,47.35,0,0,0-8.54.68,16.51,16.51,0,0,0-6,2.24,9.33,9.33,0,0,0-3.54,4.22A17,17,0,0,0,14.16,19q0,5.42.47,10.26t.47,9.84a7.23,7.23,0,0,1-.62,3,6.29,6.29,0,0,1-2.29,2.55,14.2,14.2,0,0,1-4.64,1.88A32.42,32.42,0,0,1,0,47.29v5.42a32.54,32.54,0,0,1,7.6.69,14.3,14.3,0,0,1,4.64,1.88,6.31,6.31,0,0,1,2.29,2.55,7.24,7.24,0,0,1,.62,3q0,2.6-.16,5l-.31,4.79-.31,4.95q-.16,2.55-.16,5.36a17,17,0,0,0,1.15,6.72,9.34,9.34,0,0,0,3.54,4.22,16.52,16.52,0,0,0,6,2.24,47.35,47.35,0,0,0,8.54.68l6.42,0v-4.9H34.44A33.5,33.5,0,0,1,27.93,89.41Z"/><path class="cls-1" d="M87.81,44.72a6.28,6.28,0,0,1-2.29-2.55,7.23,7.23,0,0,1-.62-3q0-5,.47-9.84t.47-10.26a17,17,0,0,0-1.15-6.72,9.35,9.35,0,0,0-3.54-4.22,16.5,16.5,0,0,0-6-2.24,46.47,46.47,0,0,0-8.49-.68H60.31v4.86h5.28a33.57,33.57,0,0,1,6.51.52,9.54,9.54,0,0,1,4,1.67,5.67,5.67,0,0,1,2,3,15.87,15.87,0,0,1,.52,4.32q0,4.48-.31,9.22T78,38.44q0,5.11,2,7.76t7.4,3.59v.42Q82,51.14,80,53.8t-2,7.76q0,5.28.34,9.66t.31,9.17a15.87,15.87,0,0,1-.52,4.32,5.67,5.67,0,0,1-2,3,9.54,9.54,0,0,1-4,1.67,33.54,33.54,0,0,1-6.51.52H60.31v4.89l6.35.08a46.49,46.49,0,0,0,8.49-.68,16.51,16.51,0,0,0,6-2.24,9.36,9.36,0,0,0,3.54-4.22A17,17,0,0,0,85.84,81q0-2.81-.16-5.36t-.31-4.95l-.31-4.79q-.16-2.39-.16-5a7.23,7.23,0,0,1,.62-3,6.29,6.29,0,0,1,2.29-2.55,14.28,14.28,0,0,1,4.64-1.88,32.53,32.53,0,0,1,7.55-.73V47.33a32.43,32.43,0,0,1-7.55-.73A14.19,14.19,0,0,1,87.81,44.72Z"/></svg>