<svg id="Layer_1" data-name="Layer 1" xmlns="http://www.w3.org/2000/svg" viewBox="0 0 100 100"><defs><style>.cls-1{fill:none;}.cls-2{fill:#333;}</style></defs><title>database</title><path class="cls-1" d="M12.5,54.2v8.3C12.5,69.38,29.3,75,50,75s37.5-5.62,37.5-12.5V54.2c-8.06,5.66-22.8,8.3-37.5,8.3S20.56,59.86,12.5,54.2Z"/><path class="cls-1" d="M50,6.25c-20.7,0-37.5,5.62-37.5,12.5V25c0,6.88,16.8,12.5,37.5,12.5S87.5,31.88,87.5,25V18.75C87.5,11.87,70.7,6.25,50,6.25Z"/><path class="cls-1" d="M12.5,72.95v8.3c0,6.88,16.8,12.5,37.5,12.5s37.5-5.62,37.5-12.5v-8.3c-8.06,5.66-22.8,8.3-37.5,8.3S20.56,78.61,12.5,72.95Z"/><path class="cls-1" d="M12.5,35.45v8.3c0,6.88,16.8,12.5,37.5,12.5s37.5-5.62,37.5-12.5v-8.3c-8.06,5.66-22.8,8.3-37.5,8.3S20.56,41.11,12.5,35.45Z"/><path class="cls-2" d="M50,0C34.74,0,6.25,3.67,6.25,18.75v62.5C6.25,96.36,34.78,100,50,100s43.75-3.67,43.75-18.75V18.75C93.75,3.64,65.22,0,50,0ZM87.5,81.25c0,6.88-16.8,12.5-37.5,12.5s-37.5-5.62-37.5-12.5v-8.3c8.06,5.66,22.8,8.3,37.5,8.3s29.44-2.64,37.5-8.3Zm0-18.75C87.5,69.38,70.7,75,50,75S12.5,69.38,12.5,62.5V54.2c8.06,5.66,22.8,8.3,37.5,8.3s29.44-2.64,37.5-8.3Zm0-18.75c0,6.88-16.8,12.5-37.5,12.5s-37.5-5.62-37.5-12.5v-8.3c8.06,5.66,22.8,8.3,37.5,8.3s29.44-2.64,37.5-8.3ZM87.5,25c0,6.88-16.8,12.5-37.5,12.5S12.5,31.88,12.5,25V18.75c0-6.88,16.8-12.5,37.5-12.5s37.5,5.62,37.5,12.5Z"/></svg>