<svg id="Layer_1" data-name="Layer 1" xmlns="http://www.w3.org/2000/svg" viewBox="0 0 100 100"><defs><style>.cls-1{fill:#333;}</style></defs><title>dry</title><path class="cls-1" d="M.05,54.31c-.38,1.75,1.48,3.7,3.25,2,9-9.55,18.7-9.1,27.54,6.42a1.83,1.83,0,0,0,3.42,0C37.76,56.57,42,50,50,50,60.16,50,65.31,62,65.75,62.72a1.83,1.83,0,0,0,3.42,0C78,47.18,87.76,46.85,96.7,56.29c1.79,1.74,3.63-.23,3.25-2-5-23.66-24-37.88-44.39-40.09V11.12a5.56,5.56,0,0,0-11.11,0v3.11C24,16.43,5.12,30.65.05,54.31Z"/><path class="cls-1" d="M44.44,57.94V80.57a2.78,2.78,0,0,1-5.4.92,5.55,5.55,0,0,0-10.47,3.7,13.89,13.89,0,0,0,27-4.64V57.93A8.52,8.52,0,0,0,50,55.56,8,8,0,0,0,44.44,57.94Z"/></svg>