<svg id="Layer_1" data-name="Layer 1" xmlns="http://www.w3.org/2000/svg" viewBox="0 0 100 100"><defs><style>.cls-1{fill:#333;}</style></defs><title>git</title><path class="cls-1" d="M98.08,45.6,54.42,1.94a6.44,6.44,0,0,0-9.11,0h0L36.24,11l11.5,11.5a7.65,7.65,0,0,1,9.68,9.75L68.51,43.34a7.65,7.65,0,1,1-4.59,4.32L53.58,37.32v27.2a7.65,7.65,0,1,1-6.3-.22V36.85a7.56,7.56,0,0,1-2.51-1.67,7.66,7.66,0,0,1-1.65-8.38L31.79,15.46,1.85,45.4a6.44,6.44,0,0,0,0,9.11h0L45.51,98.16a6.44,6.44,0,0,0,9.11,0h0L98.08,54.71a6.44,6.44,0,0,0,0-9.11h0"/></svg>