<svg id="Layer_1" data-name="Layer 1" xmlns="http://www.w3.org/2000/svg" viewBox="0 0 100 100"><defs><style>.cls-1{fill:#333;}</style></defs><title>html</title><path class="cls-1" d="M64.62,6.82,60.28,5.59h-.07A1,1,0,0,0,59,6.32L34.6,91.93V92a1,1,0,0,0,.73,1.17l4.34,1.23h.05l.08,0a1,1,0,0,0,1.2-.75L65.35,8.1V8A1,1,0,0,0,64.62,6.82Z"/><path class="cls-1" d="M8.67,50l21-17.79A.86.86,0,0,0,29.76,31l-3.21-3.63a.86.86,0,0,0-1.21-.08l-25,22A.86.86,0,0,0,.25,50.5l.09.09,25,22.08a.88.88,0,0,0,1.23-.09l0,.07L29.76,69a.86.86,0,0,0-.07-1.21Z"/><path class="cls-1" d="M99.69,49.34l-25-22.06a.89.89,0,0,0-1.23.07L70.24,31a.86.86,0,0,0,.07,1.21L91.33,50l-21,17.79A.86.86,0,0,0,70.24,69l3.21,3.63a.86.86,0,0,0,1.21.12l0,0,25-22.08a.86.86,0,0,0,.09-1.21Z"/></svg>