<svg id="Layer_1" data-name="Layer 1" xmlns="http://www.w3.org/2000/svg" viewBox="0 0 100 100"><defs><style>.cls-1{fill:none;}.cls-2{fill:#333;}</style></defs><title>javascript</title><path class="cls-1" d="M40.42,92.17c8.29,0,14-4.44,14-14.17h-.09V45.92h-9.4v32c0,4.71-1.92,5.92-5,5.92s-4.53-2.21-6-4.82l-7.62,4.58C28.55,88.29,32.9,92.17,40.42,92.17Z"/><path class="cls-1" d="M76.45,83.86c-4.62,0-7.26-2.43-9.26-5.71l-7.66,4.42c2.75,5.45,8.39,9.6,17.12,9.6l.07,0c8.91,0,15.56-4.64,15.56-13.08,0-7.86-4.48-11.36-12.48-14.78l-2.34-1c-4-1.71-5.78-2.9-5.78-5.71,0-2.26,1.84-4,4.49-4s4.39,1.12,6,4l7.32-4.69c-3.08-5.44-7.35-7.52-13.35-7.52-8.37,0-13.75,5.36-13.75,12.41,0,7.65,4.48,11.29,11.27,14.17L76,73c4.29,1.87,6.83,3,6.83,6.22C82.83,81.92,80.33,83.86,76.45,83.86Z"/><path class="cls-2" d="M0,100H100V0H0ZM76,73l-2.34-1c-6.79-2.88-11.27-6.52-11.27-14.17,0-7.05,5.38-12.41,13.75-12.41,6,0,10.27,2.08,13.35,7.52l-7.32,4.69c-1.61-2.88-3.35-4-6-4s-4.49,1.74-4.49,4c0,2.81,1.74,4,5.78,5.71l2.34,1c8,3.42,12.48,6.92,12.48,14.78,0,8.44-6.65,13.08-15.56,13.08l-.07,0c-8.73,0-14.37-4.15-17.12-9.6l7.66-4.42c2,3.28,4.64,5.71,9.26,5.71,3.88,0,6.38-1.94,6.38-4.64C82.83,76,80.29,74.87,76,73ZM33.93,79c1.47,2.61,2.81,4.82,6,4.82s5-1.21,5-5.92v-32h9.4V78h.09c0,9.73-5.71,14.17-14,14.17-7.52,0-11.87-3.88-14.11-8.59Z"/></svg>