<svg id="Layer_1" data-name="Layer 1" xmlns="http://www.w3.org/2000/svg" viewBox="0 0 100 100"><defs><style>.cls-1{fill:none;}.cls-2{fill:#333;}</style></defs><title>npm</title><path class="cls-1" d="M44.44,58.33H55.56V36.11H33.33V63.89H44.44Zm0-16.67H50V52.78H44.44Z"/><polygon class="cls-1" points="16.67 41.67 22.22 41.67 22.22 58.33 27.78 58.33 27.78 36.11 5.56 36.11 5.56 58.33 16.67 58.33 16.67 41.67"/><polygon class="cls-1" points="72.22 41.67 77.78 41.67 77.78 58.33 83.33 58.33 83.33 41.67 88.89 41.67 88.89 58.33 94.44 58.33 94.44 36.11 61.11 36.11 61.11 58.33 72.22 58.33 72.22 41.67"/><path class="cls-2" d="M0,63.89H27.78v5.56H50V63.89h50V30.56H0ZM61.11,36.11H94.44V58.33H88.89V41.67H83.33V58.33H77.78V41.67H72.22V58.33H61.11Zm-27.78,0H55.56V58.33H44.44v5.56H33.33Zm-27.78,0H27.78V58.33H22.22V41.67H16.67V58.33H5.56Z"/><rect class="cls-2" x="44.44" y="41.67" width="5.56" height="11.11"/></svg>