<svg id="Layer_1" data-name="Layer 1" xmlns="http://www.w3.org/2000/svg" viewBox="0 0 100 100"><defs><style>.cls-1{fill:#333;}</style></defs><title>php</title><circle class="cls-1" cx="49.74" cy="66.94" r="4.44"/><path class="cls-1" d="M65.14,39.71C65.14,31.71,58,27,49.7,27c-7.11,0-11.1,2.74-14.46,7.09l-.06.08a1.9,1.9,0,0,0,.48,2.64l2.08,1.45a1.9,1.9,0,0,0,2.58-.38c2.38-3,4.76-4.55,9.38-4.55,6.29,0,9.1,3.2,9.1,6.37,0,6.92-12.27,5.85-12.27,17v.06a1.9,1.9,0,0,0,1.9,1.9H51l0,0a1.9,1.9,0,0,0,1.9-1.9v-.06C52.86,49.83,65.14,50.39,65.14,39.71Z"/><path class="cls-1" d="M29.74,31,26.53,27.4a.86.86,0,0,0-1.21-.08l-25,22a.86.86,0,0,0-.09,1.21l.09.09,25,22.08a.88.88,0,0,0,1.23-.09l0,.07L29.74,69a.86.86,0,0,0-.07-1.21L8.66,50l21-17.79A.86.86,0,0,0,29.74,31Z"/><path class="cls-1" d="M99.67,49.37l-25-22.06a.89.89,0,0,0-1.23.07L70.22,31a.86.86,0,0,0,.07,1.21L91.32,50l-21,17.79A.86.86,0,0,0,70.22,69l3.21,3.63a.86.86,0,0,0,1.21.12l0,0,25-22.08a.86.86,0,0,0,.09-1.21Z"/></svg>