<svg id="Layer_1" data-name="Layer 1" xmlns="http://www.w3.org/2000/svg" viewBox="0 0 100 100"><defs><style>.cls-1{fill:#333;}</style></defs><title>phpunit</title><path class="cls-1" d="M36.13,65.86C26.64,62.31,17,59.06,7.5,55.34c-1.22-.46-2.3-.93-3.37-1.39a7,7,0,0,1-2.92-1.7A5.51,5.51,0,0,1,0,49.17,9.38,9.38,0,0,1,.93,45.6c.93-2.47,1.82-4.94,2.75-7.43.93-2.32,1.54-4.79,2.61-7a5.36,5.36,0,0,0,.46-1.7c.14-.62.46-1.25.62-1.84.46-1.07.93-2.32,1.37-3.4.93-2.47,1.68-4.79,2.61-7.1.46-.93.46-2.16,1.07-3.09a7.58,7.58,0,0,1,1.68-2c1.54-1.25,3.66-.93,5.36-.14,2.44.93,4.74,1.84,7.2,2.63s4.91,1.84,7.35,2.63,4.9,1.84,7.34,2.64,4.6,1.7,6.89,2.63a21,21,0,0,1,3.23,1.39,4.17,4.17,0,0,1,2,2.32,5.45,5.45,0,0,1,.46,1.39,3.56,3.56,0,0,1-.14,1.7,21.45,21.45,0,0,1-1.22,3.4c-.14.31-.14.62-.31.77s-.46.31-.62.46c-.31.14-.46.31-.76.31a6.26,6.26,0,0,1-.76-.14c-.93-.46-1.37-1.54-2.3-2A10.43,10.43,0,0,0,44.9,31a8.62,8.62,0,0,0-3.37.31,6.49,6.49,0,0,0-4.28,4.15,6.42,6.42,0,0,0,1.22,6.18,8.76,8.76,0,0,0,4.91,2.78c.31,0,.62.14.93,0a2.15,2.15,0,0,0,.93-.14c.31,0,.62,0,.76-.14a6.47,6.47,0,0,1,.76.31,2.5,2.5,0,0,1,.93.93c.14.14.14.31.31.62a12.26,12.26,0,0,0-.46,1.25c-.62,2.16-1.37,4.15-2.15,6.18s-1.37,4-2.15,6a18,18,0,0,0-1.07,2.78A4.37,4.37,0,0,1,41,64.33a5.57,5.57,0,0,1-1.82,1.39,10.32,10.32,0,0,1-3,.14C34.89,65.38,36.58,65.86,36.13,65.86ZM15.61,71.73H19.9c.31,0,.14.14.14.31v5.25c0,.14-.14.31.14.31h5c.14,0,.31.14.31-.14V71.74h4.12V73c.15,2.93.15,5.87.15,8.8v6.49c0,.31,0,.31-.31.31h-3.8a.5.5,0,0,1-.14-.31v-6c0-.14,0-.14-.14-.14H20.06v6.5c0,.31-.14.14-.31.14H15.46v-7c.15-3.55.15-6.81.15-10,1.39,0,0,5.73,0,0Zm-14.53,0a12.9,12.9,0,0,0,3.51-.31,10.81,10.81,0,0,1,3.66.14,8.19,8.19,0,0,1,2.92,1.25l.93.93a1.23,1.23,0,0,1,.31.62c.14.14.14.62.31.77s.14.46.14.77v.93a8.06,8.06,0,0,1-.14,1.84A5.28,5.28,0,0,1,11,81.28c-1.68,1.39-3.83,1.54-6,1.39H4.76v3.71c0,.62.31,2.16-.76,2.16H.32c-.31,0-.14-.14-.14-.31V72.62a2.35,2.35,0,0,1,.9-.9C2.92,71.87.31,72,1.08,71.73ZM5.2,75v4.34H7.35a2.23,2.23,0,0,0,1.22-.93,2.09,2.09,0,0,0,0-2.63A2.52,2.52,0,0,0,7.2,75,8.62,8.62,0,0,0,5.2,75Zm32.61,7.75h0l-.46.46v5.27H33.52c-.14,0-.31.14-.31-.14V71.77h.62a8,8,0,0,0,1.82-.14,8.33,8.33,0,0,1,1.82-.31,12.15,12.15,0,0,1,5.81,1.25,5.09,5.09,0,0,1,2.44,4.34,5.32,5.32,0,0,1-2.3,4.63,7.34,7.34,0,0,1-2.61,1.07,12.33,12.33,0,0,1-3,.09m-.46-3.41c1.07,0,2.3.31,3.23-.46a2.23,2.23,0,0,0,.31-2.95,1.6,1.6,0,0,0-1.37-.77H38.13c-.31,0-.77.14-.77.29v3.89m10.72-7.57h3.66V79.6A11.62,11.62,0,0,0,52,82.84c.14.93.46,2.32,1.54,2.78a3.79,3.79,0,0,0,2.61,0,3.3,3.3,0,0,0,1.54-1.7A2.76,2.76,0,0,0,58,82.38c0-.62.14-1.39.14-2,.14-2.63-.14-5.27,0-7.88V72H61.8v7.43a32.9,32.9,0,0,1-.14,3.71,7.72,7.72,0,0,1-1.22,3.09,4.52,4.52,0,0,1-2.61,1.84,7.49,7.49,0,0,1-5.81.14,4.51,4.51,0,0,1-2-1.39,6,6,0,0,1-1.22-2.47,18.92,18.92,0,0,1-.76-6c.05-2.78,0-5,0-6.62ZM70.71,79a2.45,2.45,0,0,0-1.82,1,2.33,2.33,0,0,0-.31,1.39v6.79c0,.14.14.31-.14.31H65c-.14,0-.14,0-.14-.14V79.74a2.56,2.56,0,0,0-.31-1.54,5.74,5.74,0,0,1,0-1.54H67.8a.23.23,0,0,1,.14,0,.21.21,0,0,1,.1.28L68,77v1.25a6.1,6.1,0,0,1,3.83-2h1.68l.23.06h.12a3.33,3.33,0,0,1,1.51,1,3,3,0,0,1,.49,1.05A5.15,5.15,0,0,1,76,79a5,5,0,0,1,.09.62,18.67,18.67,0,0,1,.31,2.78c0,2-.14,4,0,6H72.7c-.14,0-.14,0-.14-.14V84.14c0-.65,0-1.33-.06-2s-.06-1.31-.11-1.95a1.72,1.72,0,0,0-.26-.49A2.09,2.09,0,0,0,70.71,79ZM87,73.89,90.18,73a.63.63,0,0,1,.46.14c.14.14.14.62.14.77v2s-.14.31.14.31h2.15c.14,0,.31-.14.31.14v2.47H91.23c-.14,0-.31-.14-.31.14v5.88l.46.46a.82.82,0,0,0,.62.31h1.53V88.4a6,6,0,0,1-4.6-.14c-.31-.31-.76-.46-.93-.93a5.48,5.48,0,0,1-.62-1.39,25.25,25.25,0,0,1,0-3.24V79.3a1.08,1.08,0,0,0-.93-.46H86c-.14,0-.14,0-.14-.14V76.2h.46c.31,0,.62.14.93-.14A3.23,3.23,0,0,1,87,73.89C88.05,73.58,86.68,74.65,87,73.89Zm-7.54,2.46h3.23s.31-.14.31.14V88.4H79.73s-.31.14-.31-.14V76.34c1.25,0,0,4.2,0,0Z"/><path class="cls-1" d="M47.64,38.76a5.28,5.28,0,0,1-2.15,2.32c-.46.14-.93.31-1.54.46-.14,0-.46.14-.62.14a1,1,0,0,1-.76-.31,3.77,3.77,0,0,1-2.75-3.57,4,4,0,0,1,7.37-2.16c.59.8.45,2,.45,3.13-.48.76,0-.62,0,0Zm-5.81-1.85a3.46,3.46,0,0,0,0,.77,3,3,0,0,0,.26.77,3.27,3.27,0,0,0,1.07.93,1.83,1.83,0,0,0,2.4-1l0-.1a6,6,0,0,1,.14-.62.37.37,0,0,0,0-.22v-.23a1.59,1.59,0,0,0-.08-.34.22.22,0,0,0-.08-.2,2.52,2.52,0,0,0-.42-.62,3.58,3.58,0,0,0-.43-.37,3.15,3.15,0,0,0-.45-.29,2.26,2.26,0,0,0-1.67.26,2,2,0,0,0-.57.57A3.59,3.59,0,0,1,41.83,36.91ZM82.64,71.08a1.88,1.88,0,0,1,.43.71,2.27,2.27,0,0,1,.09.71,3.56,3.56,0,0,1-.09.82,2.4,2.4,0,0,1-.37.82,2.54,2.54,0,0,1-1,.39,2.7,2.7,0,0,1-1.14-.08,2,2,0,0,1-.23-3.66,2.7,2.7,0,0,1,1.17-.12A2.82,2.82,0,0,1,82.64,71.08Zm-6.55-5.9a20.76,20.76,0,0,1,1.82-1.39c.46.77.93,1.54,1.37,2.32,0,.14.29.45.14.45a.74.74,0,0,0-.46.31,7.06,7.06,0,0,1-1.07.77c-.9-.43-1.19-1.51-1.81-2.46.62-.46.62.94,0,0ZM67.84,51.73c-.46.46-.76.77-1.22,1.25-.14.14-.14,0-.31,0L66,52.67,65.38,52l-.63-.62-.31-.31c-.14-.14-.14-.14,0-.31.31-.46.76-.93,1.07-1.39.65.93,2.18,1.07,2.33,2.3-.45.46-.15-1.24,0,0ZM55.59,41.86c.76.46,1.37.93,2.15,1.39.14,0,.14.14.31.14s.14.14,0,.14c-.14.31-.31.46-.46.77A8.3,8.3,0,0,1,57,45.55c-.62-.46-1.37-1.07-2.15-1.54a.79.79,0,0,1-.46-.31c.14-.14.31-.46.46-.62a5.77,5.77,0,0,1,.77-1.22c.77.6-.46.6,0,0ZM73.35,61.18a2.78,2.78,0,0,1-.28-.31,2.87,2.87,0,0,1-.22-.31,1.1,1.1,0,0,1-.25-.43.67.67,0,0,1,0-.19c0-.26.59-.8,1.53-1.33.26.32.53.66.77,1s.53.73.77,1.08a2,2,0,0,1,.22.36.63.63,0,0,1,0,.19c0,.11-.12.14-.32.28a1.94,1.94,0,0,0-.25.2L75,62a5.53,5.53,0,0,1-.76.56ZM48.86,40.77c.31-.46.62-1.07.93-1.54a.63.63,0,0,1,.14-.31c.31,0,.31.14.46.14.31.14.62.31.93.46s.46.31.76.46c.14,0,.31.14.46.14s0,.14,0,.31c-.31.62-.46,1.25-.76,1.84a29.38,29.38,0,0,1-2.92-1.5C49.32,40.15,49.94,41.38,48.86,40.77Zm10.87,6.5c-.14-.93.93-1.07.93-1.84a29.79,29.79,0,0,1,2.61,2c-.31.31-.46.62-.76.93A2.19,2.19,0,0,0,62,49a1,1,0,0,1-.62-.14,6.38,6.38,0,0,1-1.7-1.59C59.57,46.32,60.33,48,59.73,47.27ZM70.6,57.6a29.24,29.24,0,0,0-2-2.32l.93-.93a.82.82,0,0,1,.62-.31c.31,0,.62.46.76.62.14.31.46.46.62.77s.46.46.46.77c0,.14,0,.14-.14.31A7.48,7.48,0,0,1,70.6,57.6C70,56.84,71,57.32,70.6,57.6ZM43,22.67l-.31-.31A.34.34,0,0,0,43,22.67Z"/></svg>