<svg id="Layer_1" data-name="Layer 1" xmlns="http://www.w3.org/2000/svg" viewBox="0 0 100 100"><defs><style>.cls-1{fill:#333;}</style></defs><title>terminal</title><path class="cls-1" d="M4.35,15.25,37.69,48.58a1.9,1.9,0,0,1,0,2.68L4.35,84.6a1.9,1.9,0,0,1-2.68,0L.56,83.49a1.9,1.9,0,0,1,0-2.68L31.44,49.92.56,19a1.9,1.9,0,0,1,0-2.68L1.68,15.2A1.9,1.9,0,0,1,4.35,15.25ZM100,83.41V81.83a1.9,1.9,0,0,0-1.9-1.9H46.29a1.9,1.9,0,0,0-1.9,1.9h0v1.58a1.9,1.9,0,0,0,1.9,1.9H98.1a1.9,1.9,0,0,0,1.9-1.9Z"/></svg>